<svg id="a777089b-0abc-4895-8bdb-d70d2134474e" data-name="Layer 1" xmlns="http://www.w3.org/2000/svg" width="980.47972" height="770.90609" viewBox="0 0 980.47972 770.90609"><title>mobile_interface</title><rect y="700.96053" width="912" height="2" fill="#575a89"/><path d="M231.9846,262.25749h-6l-25.5,92.5s-.5,61.5,5.5,91.5c0,0,10-13,17-13s13.5-65.5,13.5-65.5S263.9846,274.25749,231.9846,262.25749Z" transform="translate(-109.76014 -64.54696)" fill="#575a89"/><path d="M363.9846,439.25749s-16,45-1,48,23-35,19-40S363.9846,439.25749,363.9846,439.25749Z" transform="translate(-109.76014 -64.54696)" fill="#a0616a"/><path d="M204.35776,429.96054s4.4977,47.54756,19.36164,43.93321,6.07016-41.43855.333-44.28193S204.35776,429.96054,204.35776,429.96054Z" transform="translate(-109.76014 -64.54696)" fill="#a0616a"/><path d="M242.9846,708.25749s7,34-5,43,4,28,4,28l38-40s-16-25-15-40Z" transform="translate(-109.76014 -64.54696)" fill="#a0616a"/><polygon points="193.224 674.711 189.224 701.711 188.224 720.711 210.224 718.711 213.224 679.711 193.224 674.711" fill="#a0616a"/><path d="M218.317,434.726s-12.33243,4.5315-11.33243,17.5315,4,54,4,54-9,88,0,118,26,90,26,90,26,5,32-14c0,0-1-65-12-79s-3-18-2-20,4-5,4-8,1-14,1-18-1-3,1-9,4-8,4-9,17-54,17-54l22,123s-5,121-3,121,24,8,32,0c0,0,20-104,16-110s-5-7-4-13,3-9,1-12-5-13-2-16,4-17,4-17,17-98,6-112S218.317,434.726,218.317,434.726Z" transform="translate(-109.76014 -64.54696)" fill="#2f2e41"/><path d="M251.9846,752.25749s-12-15-16-8-10,18-10,18-45,39-20,40,41-17,41-17,4-20,16-20l2,5,22-14s-3.09824-26.55134-12.04912-25.77567Z" transform="translate(-109.76014 -64.54696)" fill="#2f2e41"/><path d="M293.9846,782.25749s26-10,29,0,3,15,3,15,22,36,0,38-32-12-32-12,3-17,0-19S293.9846,782.25749,293.9846,782.25749Z" transform="translate(-109.76014 -64.54696)" fill="#2f2e41"/><circle cx="202.22446" cy="130.71053" r="35" fill="#a0616a"/><path d="M285.9846,203.25749l-7,39,49,12s-11.5-28.5,1-41C332.14688,210.09521,285.9846,203.25749,285.9846,203.25749Z" transform="translate(-109.76014 -64.54696)" fill="#a0616a"/><path d="M281.96677,225.64254a6.38225,6.38225,0,0,0-4.98217,4.61495,26.62873,26.62873,0,0,1-4,8s-47,22-47,25,19,67,19,67,1,40-7,49-16,42-14,45-14,10-8,15,90,53,140,31c0,0,1-9,0-15s6-26,4-33,0-79,0-79l10.30575-85.25663a6.9381,6.9381,0,0,0-4.86745-7.47524c-11.52566-3.50294-38.254-17.84468-41.9383-14.76813C318.71411,239.74111,288.94894,237.02759,281.96677,225.64254Z" transform="translate(-109.76014 -64.54696)" fill="#575a89"/><path d="M360.9846,250.25749l.06376-.02551a6.93556,6.93556,0,0,1,8.18078,2.34316c6.19656,8.4795,19.23739,27.53775,20.75546,39.68235,2,16,8,59,7,65s-2,7,0,10,1,2,0,5-13,86-13,86-8-18-23-12c0,0,2-16,0-21s-4-8-2-12,0-43-1-47,0-25,0-25l-9-41Z" transform="translate(-109.76014 -64.54696)" fill="#575a89"/><path d="M305.44763,201.21625l1.1822-8.2412c.27555-1.92086,1.39971-4.44651,3.2686-3.92412,1.58954.4443,5.05268,1.805,5.63247,1.3943,2.17136-1.53819,5.45724,1.15141,7.74059-.215.95663-.57249,1.58071-1.799,2.69256-1.88086a3.067,3.067,0,0,1,1.97664.89548,13.45352,13.45352,0,0,0,5.11673,2.77964,5.50379,5.50379,0,0,0,5.3867-1.46828,2.86081,2.86081,0,0,1,.95255-.91312,2.13713,2.13713,0,0,1,1.36972.063l5.834,1.58843a22.41755,22.41755,0,0,0-2.99926-18.45676,37.12253,37.12253,0,0,0-8.49724-8.32176q-5.41942-4.12287-11.18569-7.7557c-4.20741-2.6579-8.6694-5.16511-13.58964-5.91226-4.91982-.74707-10.4285.58954-13.52307,4.4865a8.70771,8.70771,0,0,1-3.13216-4.23124,3.20517,3.20517,0,0,0,.20677,4.91446l-4.934-3.15078c-1.387,1.45635,1.32291,4.09719.14113,5.72454a3.01509,3.01509,0,0,1-1.32833.86728,22.61873,22.61873,0,0,0-7.23465,4.55353c-2.83582,2.84367-4.37589,6.70361-5.69774,10.49584-2.94013,8.4349-5.077,18.10812-.89967,26.00379.47358.89511,6.72484,15.66946,7.55766,16.24557,2.81533,1.94751.98267-2.76568,3,0,1.58194,2.16877,1.28582-6.1319,3.63689-4.30988a5.86084,5.86084,0,0,0,6.37928.28687c.97472-.676.66064-4.42971.13472-7.87682a4.06106,4.06106,0,0,1,4.94089-4.56893C302.50448,200.97752,305.39745,201.56612,305.44763,201.21625Z" transform="translate(-109.76014 -64.54696)" fill="#2f2e41"/><path d="M850.05089,203.53475v-54.44A125.24708,125.24708,0,0,1,769.19212,88.9059l-.00128.001a23.78923,23.78923,0,0,1-14.22,4.68H711.74235A178.54914,178.54914,0,0,0,850.05089,203.53475Z" transform="translate(-109.76014 -64.54696)" fill="#3f3d56"/><path d="M850.05089,145.97475V93.677a29.12111,29.12111,0,0,0-29.13-29.13h-41.97v5.05a23.91662,23.91662,0,0,1-7.3988,17.32886A122.29834,122.29834,0,0,0,850.05089,145.97475Z" transform="translate(-109.76014 -64.54696)" fill="#3f3d56"/><path d="M648.16215,93.58693H621.13084a23.987,23.987,0,0,1-23.98-23.99v-5.05h-39.38a29.12752,29.12752,0,0,0-29.13,29.13v648.2a29.07916,29.07916,0,0,0,29.13,29.11h263.15a28.362,28.362,0,0,0,3.59-.22,29.14642,29.14642,0,0,0,25.54-28.89V264.70479C754.34184,253.61464,674.59276,185.3257,648.16215,93.58693Z" transform="translate(-109.76014 -64.54696)" fill="#3f3d56"/><path d="M708.46239,93.58693H651.32213c26.3006,90.03876,104.67969,157.02771,198.72876,168.06788V206.63473A181.66781,181.66781,0,0,1,708.46239,93.58693Z" transform="translate(-109.76014 -64.54696)" fill="#3f3d56"/><path d="M623.9298,760.96606c.72509-.72036,17.92808-18.14191,32.51062-59.47976,13.3778-37.92552,26.87794-104.06143,15.21265-203.76177-22.10036-188.876,91.22771-309.2471,92.37693-310.44115l-3.35459-3.2215c-.29127.3028-29.42935,30.93317-55.3538,84.70624A416.27953,416.27953,0,0,0,667.034,498.26533c22.06224,188.55351-45.69813,258.71848-46.38485,259.40615Z" transform="translate(-109.76014 -64.54696)" opacity="0.1"/><circle cx="689.0682" cy="89.34925" r="30.22227" opacity="0.1"/><circle cx="570.00336" cy="175.14603" r="30.22227" opacity="0.1"/><circle cx="615.5941" cy="262.85628" r="30.22227" opacity="0.1"/><circle cx="523.91839" cy="305.08571" r="30.22227" opacity="0.1"/><circle cx="600.12995" cy="424.20328" r="30.22227" opacity="0.1"/><path d="M605.9292,757.71611s47.00552-65.10166-27.83954-140.81008Z" transform="translate(-109.76014 -64.54696)" opacity="0.1"/><path d="M642.35728,765.22139s32.12666-73.59091,135.38473-47.68113Z" transform="translate(-109.76014 -64.54696)" opacity="0.1"/><rect x="453" y="491.96053" width="254" height="50" fill="#6c63ff"/><path d="M692.26014,266.64134A115.51132,115.51132,0,0,0,670.1095,495.51805c.20874.04113.4209.08227.63282.12024q4.98888.94455,10.126,1.4461c.21216.02216.4209.04431.63306.06012q5.0028.46518,10.126.49365c.21191.00318.42089.00318.63281.00318q5.1167,0,10.126-.43988c.21191-.01581.42089-.03479.63281-.05695q5.13135-.46985,10.12622-1.38916c.21191-.038.42407-.07593.63281-.11706a115.51042,115.51042,0,0,0-21.51782-228.99695Z" transform="translate(-109.76014 -64.54696)" fill="#6c63ff"/><path d="M802.76014,382.14135A110.5336,110.5336,0,0,1,712.84644,490.725c-.19978.03936-.40267.07568-.60548.112q-4.7727.87643-9.68767,1.329c-.20281.0212-.40267.03936-.60548.05449q-4.78633.41778-9.68767.42082c-.20281,0-.40267,0-.60548-.003q-4.89531-.02271-9.68767-.47228c-.20281-.01513-.40267-.03632-.60548-.05752q-4.909-.4768-9.68767-1.38352c-.20281-.03633-.4057-.07569-.60548-.115A110.50891,110.50891,0,1,1,802.76014,382.14135Z" transform="translate(-109.76014 -64.54696)" fill="#3f3d56"/><path d="M676.6395,474.10978a4.659,4.659,0,1,1,4.659-4.659A4.66453,4.66453,0,0,1,676.6395,474.10978Zm0-8.38628a3.72724,3.72724,0,1,0,3.72724,3.72724A3.73151,3.73151,0,0,0,676.6395,465.7235Z" transform="translate(-109.76014 -64.54696)" fill="#6c63ff"/><rect x="582.5" y="282.65156" width="0.93181" height="138.14066" fill="#6c63ff"/><rect x="582.5" y="223.4362" width="0.93181" height="40.75344" fill="#6c63ff"/><rect x="534.51184" y="268.44147" width="0.93181" height="138.20482" fill="#6c63ff"/><rect x="600.20437" y="268.44147" width="0.93181" height="138.20482" fill="#6c63ff"/><rect x="550.35259" y="253.06663" width="0.93181" height="128.28524" fill="#6c63ff"/><rect x="566.41346" y="218.0761" width="0.93181" height="177.97549" fill="#6c63ff"/><rect x="613.7156" y="224.64646" width="0.93181" height="27.69379" fill="#6c63ff"/><rect x="613.7156" y="270.82969" width="0.93181" height="126.66731" fill="#6c63ff"/><rect x="629.55635" y="251.20301" width="0.93181" height="16.30666" fill="#6c63ff"/><rect x="629.55635" y="285.79732" width="0.93181" height="81.0014" fill="#6c63ff"/><rect x="629.55635" y="383.35107" width="0.93181" height="14.14593" fill="#6c63ff"/><path d="M660.57864,459.24853a4.659,4.659,0,1,1,4.659-4.659A4.66438,4.66438,0,0,1,660.57864,459.24853Z" transform="translate(-109.76014 -64.54696)" fill="#6c63ff"/><path d="M692.26014,341.84061a4.659,4.659,0,1,1,4.659-4.659A4.66438,4.66438,0,0,1,692.26014,341.84061Zm0-8.38628a3.72724,3.72724,0,1,0,3.72723,3.72724A3.73151,3.73151,0,0,0,692.26014,333.45433Z" transform="translate(-109.76014 -64.54696)" fill="#6c63ff"/><path d="M692.726,288.2616a4.659,4.659,0,1,1,4.659-4.659A4.66438,4.66438,0,0,1,692.726,288.2616Zm0-8.38628a3.72724,3.72724,0,1,0,3.72724,3.72724A3.73151,3.73151,0,0,0,692.726,279.87532Z" transform="translate(-109.76014 -64.54696)" fill="#6c63ff"/><path d="M739.78239,444.33959a4.659,4.659,0,1,1,4.659-4.659A4.66453,4.66453,0,0,1,739.78239,444.33959Zm0-8.38628a3.72724,3.72724,0,1,0,3.72724,3.72723A3.7315,3.7315,0,0,0,739.78239,435.95331Z" transform="translate(-109.76014 -64.54696)" fill="#6c63ff"/><path d="M644.73789,326.93167a4.659,4.659,0,1,1,4.659-4.659A4.66438,4.66438,0,0,1,644.73789,326.93167Z" transform="translate(-109.76014 -64.54696)" fill="#6c63ff"/><path d="M739.78239,346.03375a4.659,4.659,0,1,1,4.659-4.659A4.66438,4.66438,0,0,1,739.78239,346.03375Zm0-8.38628a3.72724,3.72724,0,1,0,3.72724,3.72724A3.7315,3.7315,0,0,0,739.78239,337.64747Z" transform="translate(-109.76014 -64.54696)" fill="#6c63ff"/><path d="M723.94164,330.193a4.659,4.659,0,1,1,4.659-4.659A4.66438,4.66438,0,0,1,723.94164,330.193Z" transform="translate(-109.76014 -64.54696)" fill="#6c63ff"/><path d="M918.42705,757.92366S965.43256,692.822,890.5875,617.11359Z" transform="translate(-109.76014 -64.54696)" opacity="0.1"/><path d="M954.85512,760.429s32.12667-73.59091,135.38474-47.68113Z" transform="translate(-109.76014 -64.54696)" opacity="0.1"/></svg>