<?xml version="1.0" encoding="utf-8"?>
<!-- Generator: Adobe Illustrator 27.5.0, SVG Export Plug-In . SVG Version: 6.00 Build 0)  -->
<svg version="1.1" id="BACKGROUND" xmlns="http://www.w3.org/2000/svg" xmlns:xlink="http://www.w3.org/1999/xlink" x="0px" y="0px"
	 viewBox="0 0 750 500" style="enable-background:new 0 0 750 500;" xml:space="preserve">
<rect x="0" y="0" style="fill:#FFFFFF;" width="750" height="500"/>
<g>
	<defs>
		<rect id="SVGID_1_" x="0" y="0" width="750" height="500"/>
	</defs>
	<clipPath id="SVGID_00000181791831865949282320000005686216929714875279_">
		<use xlink:href="#SVGID_1_"  style="overflow:visible;"/>
	</clipPath>
	<g style="clip-path:url(#SVGID_00000181791831865949282320000005686216929714875279_);">
		<polygon style="fill:#D2D2D2;" points="153.942,455.164 153.942,470.074 164.523,462.619 		"/>
		<polygon style="fill:#D2D2D2;" points="166.126,455.164 166.126,470.074 176.707,462.619 		"/>
		<polygon style="fill:#D2D2D2;" points="178.31,455.164 178.31,470.074 188.891,462.619 		"/>
	</g>
	<g style="clip-path:url(#SVGID_00000181791831865949282320000005686216929714875279_);">
		<polygon style="fill:#D2D2D2;" points="0,362.639 0,377.549 10.581,370.094 		"/>
		<polygon style="fill:#D2D2D2;" points="12.184,362.639 12.184,377.549 22.765,370.094 		"/>
		<polygon style="fill:#D2D2D2;" points="24.368,362.639 24.368,377.549 34.949,370.094 		"/>
	</g>
	<g style="clip-path:url(#SVGID_00000181791831865949282320000005686216929714875279_);">
		<polygon style="fill:#D2D2D2;" points="670.221,107.277 670.221,120.807 679.823,114.042 		"/>
		<polygon style="fill:#D2D2D2;" points="681.278,107.277 681.278,120.807 690.88,114.042 		"/>
		<polygon style="fill:#D2D2D2;" points="692.335,107.277 692.335,120.807 701.937,114.042 		"/>
	</g>
	<g style="clip-path:url(#SVGID_00000181791831865949282320000005686216929714875279_);">
		<polygon style="fill:#D2D2D2;" points="519.648,60.994 519.648,74.524 529.25,67.759 		"/>
		<polygon style="fill:#D2D2D2;" points="530.705,60.994 530.705,74.524 540.307,67.759 		"/>
		<polygon style="fill:#D2D2D2;" points="541.762,60.994 541.762,74.524 551.364,67.759 		"/>
	</g>
	<g style="clip-path:url(#SVGID_00000181791831865949282320000005686216929714875279_);">
		<polygon style="fill:#D7D7D7;" points="402.739,414.233 402.739,427.763 412.341,420.998 		"/>
		<polygon style="fill:#D7D7D7;" points="413.796,414.233 413.796,427.763 423.398,420.998 		"/>
		<polygon style="fill:#D7D7D7;" points="424.853,414.233 424.853,427.763 434.455,420.998 		"/>
	</g>
	<g style="clip-path:url(#SVGID_00000181791831865949282320000005686216929714875279_);">
		<polygon style="fill:#DCDCDC;" points="274.367,9.246 274.367,21.156 282.819,15.201 		"/>
		<polygon style="fill:#DCDCDC;" points="284.099,9.246 284.099,21.156 292.551,15.201 		"/>
		<polygon style="fill:#DCDCDC;" points="293.832,9.246 293.832,21.156 302.284,15.201 		"/>
	</g>
	<g style="clip-path:url(#SVGID_00000181791831865949282320000005686216929714875279_);">
		<polygon style="fill:#D7D7D7;" points="725.993,342.435 725.993,354.345 734.445,348.39 		"/>
		<polygon style="fill:#D7D7D7;" points="735.726,342.435 735.726,354.345 744.178,348.39 		"/>
		<polygon style="fill:#D7D7D7;" points="745.458,342.435 745.458,354.345 753.91,348.39 		"/>
	</g>
	<g style="clip-path:url(#SVGID_00000181791831865949282320000005686216929714875279_);">
		<polygon style="fill:#D2D2D2;" points="631.736,413.814 631.736,432.909 645.288,423.362 		"/>
		<polygon style="fill:#D2D2D2;" points="647.341,413.814 647.341,432.909 660.892,423.362 		"/>
		<polygon style="fill:#D2D2D2;" points="662.946,413.814 662.946,432.909 676.497,423.362 		"/>
	</g>
	<g style="clip-path:url(#SVGID_00000181791831865949282320000005686216929714875279_);">
		<polygon style="fill:#E9E9E9;" points="1.89,52.974 1.89,69.119 13.348,61.046 		"/>
		<polygon style="fill:#E9E9E9;" points="15.084,52.974 15.084,69.119 26.542,61.046 		"/>
		<polygon style="fill:#E9E9E9;" points="28.279,52.974 28.279,69.119 39.737,61.046 		"/>
	</g>
</g>
<g>
	<g>
		<circle style="fill:#EFEFEF;" cx="189.178" cy="250" r="128.219"/>
		<circle style="fill:#DDDDDD;" cx="189.178" cy="250" r="103.437"/>
		<circle style="fill:#C9C9C9;" cx="189.178" cy="250" r="75.437"/>
		<circle style="fill:#B2B2B2;" cx="189.178" cy="250" r="32.567"/>
		<circle style="fill:#FFFFFF;" cx="189.178" cy="250" r="16.564"/>
		<g>
			<path style="fill:none;stroke:#A9A9A9;stroke-width:0.3;stroke-miterlimit:10;" d="M217.211,233.402l2.459-1.42
				c-3.204-5.414-7.806-9.899-13.313-12.96l-1.42,2.459C210.013,224.292,214.256,228.419,217.211,233.402z"/>
			<path style="fill:none;stroke:#A9A9A9;stroke-width:0.3;stroke-miterlimit:10;" d="M217.211,266.581l2.459,1.42
				c3.124-5.278,4.923-11.432,4.923-18.009h-2.84C221.754,256.051,220.094,261.721,217.211,266.581z"/>
			<path style="fill:none;stroke:#A9A9A9;stroke-width:0.3;stroke-miterlimit:10;" d="M189.178,282.567
				c-0.235,0-0.467-0.013-0.7-0.018v2.84c0.234,0.005,0.465,0.018,0.7,0.018c6.235,0,12.091-1.617,17.18-4.446l-1.42-2.459
				C200.267,281.089,194.896,282.567,189.178,282.567z"/>
			<path style="fill:none;stroke:#A9A9A9;stroke-width:0.3;stroke-miterlimit:10;" d="M160.795,234.009l-2.459-1.42
				c-2.907,5.141-4.574,11.075-4.574,17.402h2.84C156.602,244.181,158.13,238.732,160.795,234.009z"/>
			<path style="fill:none;stroke:#A9A9A9;stroke-width:0.3;stroke-miterlimit:10;" d="M170.947,280.356l1.419-2.459
				c-4.811-2.905-8.805-7.022-11.571-11.923l-2.459,1.419C161.352,272.726,165.704,277.201,170.947,280.356z"/>
			<path style="fill:none;stroke:#A9A9A9;stroke-width:0.3;stroke-miterlimit:10;" d="M188.477,217.433v-2.84
				c-6.404,0.125-12.392,1.941-17.531,5.033l1.419,2.459C177.087,219.235,182.591,217.557,188.477,217.433z"/>
			<path style="fill:none;stroke:#A9A9A9;stroke-width:0.3;stroke-miterlimit:10;" d="M217.211,233.402
				c-2.955-4.983-7.198-9.109-12.273-11.921"/>
			<path style="fill:none;stroke:#A9A9A9;stroke-width:0.3;stroke-miterlimit:10;" d="M217.211,266.581
				c2.882-4.86,4.542-10.53,4.542-16.589"/>
			<path style="fill:none;stroke:#A9A9A9;stroke-width:0.3;stroke-miterlimit:10;" d="M188.477,282.549
				c0.234,0.005,0.465,0.018,0.7,0.018c5.718,0,11.089-1.478,15.76-4.065"/>
			<path style="fill:none;stroke:#A9A9A9;stroke-width:0.3;stroke-miterlimit:10;" d="M160.795,234.009
				c-2.665,4.723-4.193,10.173-4.193,15.982"/>
			<path style="fill:none;stroke:#A9A9A9;stroke-width:0.3;stroke-miterlimit:10;" d="M188.477,217.433
				c-5.887,0.125-11.391,1.802-16.111,4.652"/>
			<path style="fill:none;stroke:#A9A9A9;stroke-width:0.3;stroke-miterlimit:10;" d="M160.795,265.974
				c2.766,4.902,6.76,9.019,11.571,11.923"/>
		</g>
		<g>
			
				<ellipse transform="matrix(0.8876 -0.4607 0.4607 0.8876 -93.9044 115.2682)" style="fill:none;stroke:#595959;stroke-width:4;stroke-miterlimit:10;stroke-dasharray:0.9937,0.9937;" cx="189.178" cy="250" rx="20.882" ry="20.883"/>
		</g>
		<g>
			<g>
				<path style="fill:#A4A4A4;" d="M221.293,213.237c-1.372-1.202-2.811-2.328-4.316-3.37l-5.386,7.78
					c1.212,0.842,2.376,1.751,3.483,2.716L221.293,213.237z M232.907,228.268l-8.481,4.212c2.631,5.272,4.108,11.226,4.108,17.52
					h9.465C237.999,242.191,236.172,234.808,232.907,228.268z M224.199,215.992l-6.786,6.588c2.073,2.139,3.919,4.515,5.461,7.089
					l8.112-4.893C229.064,221.595,226.783,218.642,224.199,215.992z"/>
			</g>
			<g>
				<path style="fill:#A4A4A4;" d="M173.398,203.806c-1.727,0.588-3.422,1.27-5.076,2.053l4.045,8.554
					c1.335-0.628,2.704-1.182,4.094-1.658L173.398,203.806z M192.222,201.264l-0.593,9.451c5.882,0.357,11.776,2.055,17.227,5.202
					l4.733-8.197C206.826,203.815,199.519,201.706,192.222,201.264z M177.236,202.667l2.312,9.171
					c2.889-0.726,5.869-1.136,8.87-1.185l-0.182-9.472C184.522,201.255,180.824,201.754,177.236,202.667z"/>
			</g>
			<g>
				<path style="fill:#A4A4A4;" d="M141.283,240.569c-0.355,1.79-0.611,3.599-0.76,5.423l9.431,0.774
					c0.124-1.47,0.328-2.933,0.611-4.375L141.283,240.569z M148.493,222.995l7.888,5.239c3.25-4.915,7.668-9.17,13.119-12.318
					l-4.733-8.197C158.005,211.624,152.524,216.897,148.493,222.995z M142.215,236.675l9.098,2.583
					c0.816-2.865,1.951-5.651,3.409-8.274l-8.294-4.578C144.635,229.66,143.219,233.112,142.215,236.675z"/>
			</g>
			<g>
				<path style="fill:#A4A4A4;" d="M157.063,286.763c1.372,1.202,2.811,2.328,4.316,3.37l5.386-7.78
					c-1.212-0.842-2.376-1.751-3.483-2.716L157.063,286.763z M145.449,271.732l8.481-4.212c-2.631-5.272-4.108-11.226-4.108-17.52
					h-9.465C140.357,257.809,142.183,265.192,145.449,271.732z M154.157,284.008l6.786-6.588c-2.073-2.139-3.919-4.515-5.461-7.089
					l-8.112,4.894C149.292,278.405,151.573,281.358,154.157,284.008z"/>
			</g>
			<g>
				<path style="fill:#A4A4A4;" d="M204.958,296.194c1.727-0.587,3.422-1.27,5.076-2.053l-4.045-8.554
					c-1.335,0.628-2.704,1.182-4.094,1.658L204.958,296.194z M186.134,298.736l0.593-9.451c-5.882-0.357-11.776-2.055-17.227-5.202
					l-4.733,8.197C171.53,296.185,178.837,298.294,186.134,298.736z M201.119,297.333l-2.312-9.171
					c-2.889,0.725-5.869,1.136-8.87,1.185l0.182,9.472C193.834,298.745,197.532,298.246,201.119,297.333z"/>
			</g>
			<g>
				<path style="fill:#A4A4A4;" d="M237.073,259.431c0.355-1.79,0.611-3.599,0.76-5.423l-9.431-0.774
					c-0.124,1.47-0.329,2.933-0.611,4.375L237.073,259.431z M229.863,277.004l-7.888-5.239c-3.25,4.915-7.668,9.17-13.119,12.318
					l4.733,8.197C220.351,288.376,225.831,283.103,229.863,277.004z M236.14,263.325l-9.098-2.583
					c-0.816,2.865-1.951,5.651-3.409,8.274l8.294,4.578C233.72,270.34,235.137,266.888,236.14,263.325z"/>
			</g>
		</g>
		<g>
			<g>
				<path style="fill:#B4B3B3;" d="M212.008,199.04c-9.134-4.089-19.158-5.594-28.944-4.515l-0.312-2.83
					c10.289-1.117,20.814,0.464,30.412,4.751L212.008,199.04z"/>
				<path style="fill:#B4B3B3;" d="M243.782,238.405c-2.054-9.787-6.758-19.12-14.103-26.853l2.063-1.959
					c7.714,8.131,12.655,17.936,14.822,28.225L243.782,238.405z"/>
				<path style="fill:#B4B3B3;" d="M239.419,280.326l-2.433-1.467c4.278-7.08,6.843-14.917,7.686-22.906l2.83,0.303
					C246.612,264.652,243.915,272.887,239.419,280.326z"/>
			</g>
			<g>
				<g>
					<path style="fill:none;stroke:#8C8C8C;stroke-width:3;stroke-miterlimit:10;" d="M229.67,290.492
						c-0.059,0.059-0.118,0.118-0.177,0.176"/>
					<path style="fill:none;stroke:#8C8C8C;stroke-width:3;stroke-miterlimit:10;stroke-dasharray:0.4996,1.9985;" d="
						M228.049,292.051c-22.461,20.791-57.533,20.271-79.363-1.559c-22.068-22.068-22.359-57.667-0.873-80.092"/>
					<path style="fill:none;stroke:#8C8C8C;stroke-width:3;stroke-miterlimit:10;" d="M148.51,209.685
						c0.059-0.059,0.117-0.118,0.176-0.177"/>
				</g>
			</g>
		</g>
		<g>
			<path style="fill:none;stroke:#A4A4A4;stroke-width:0.3;stroke-miterlimit:10;" d="M124.228,235.745l-2.773-0.606
				c1.846-8.424,5.253-16.574,10.26-23.966l2.347,1.581C129.273,219.844,125.998,227.662,124.228,235.745z"/>
			<path style="fill:none;stroke:#A4A4A4;stroke-width:0.3;stroke-miterlimit:10;" d="M133.343,291.126
				c-6.578-8.916-10.743-19.044-12.513-29.522l2.802-0.473c1.694,10.042,5.689,19.773,11.992,28.32L133.343,291.126z"/>
			<path style="fill:none;stroke:#A4A4A4;stroke-width:0.3;stroke-miterlimit:10;" d="M174.545,317.761
				c-7.695-1.647-15.163-4.61-22.035-8.897l1.495-2.404c6.597,4.108,13.762,6.947,21.136,8.528L174.545,317.761z"/>
			<path style="fill:none;stroke:#A4A4A4;stroke-width:0.3;stroke-miterlimit:10;" d="M198.321,315.849
				c9.484-1.306,18.741-4.647,27.051-10.043l1.543,2.376c-8.661,5.622-18.306,9.115-28.197,10.478L198.321,315.849z"/>
		</g>
		<g>
			<g>
				<path style="fill:none;stroke:#8E8E8E;stroke-width:3;stroke-miterlimit:10;" d="M141.145,201.967
					c0.059-0.059,0.118-0.118,0.177-0.176"/>
				<path style="fill:none;stroke:#8E8E8E;stroke-width:3;stroke-miterlimit:10;stroke-dasharray:0.5021,2.0085;" d="
					M142.768,200.397c26.631-24.946,68.449-24.422,94.442,1.571c26.233,26.233,26.524,68.584,0.874,95.175"/>
				<path style="fill:none;stroke:#8E8E8E;stroke-width:3;stroke-miterlimit:10;" d="M237.387,297.855
					c-0.059,0.059-0.118,0.118-0.176,0.177"/>
			</g>
		</g>
		<g>
			<path style="fill:none;stroke:#B1B1B1;stroke-width:1.5;stroke-miterlimit:10;" d="M263.441,289.29
				c4.174-7.856,7.127-16.46,8.613-25.556"/>
		</g>
		<g>
			<path style="fill:none;stroke:#B1B1B1;stroke-width:1.5;stroke-miterlimit:10;" d="M263.441,289.29
				c4.174-7.856,7.127-16.46,8.613-25.556"/>
		</g>
		<g>
			<path style="fill:none;stroke:#B1B1B1;stroke-width:1.5;stroke-miterlimit:10;" d="M263.441,289.29
				c4.174-7.856,7.127-16.46,8.613-25.556"/>
		</g>
		<g>
			<path style="fill:none;stroke:#B1B1B1;stroke-width:1.5;stroke-miterlimit:10;" d="M263.441,289.29
				c4.174-7.856,7.127-16.46,8.613-25.556"/>
		</g>
		<g>
			<g>
				<path style="fill:none;stroke:#FFFFFF;stroke-width:1.5;stroke-miterlimit:10;" d="M263.441,289.29
					c4.174-7.856,7.127-16.46,8.613-25.556"/>
			</g>
			<g>
				<path style="fill:none;stroke:#FFFFFF;stroke-width:1.5;stroke-miterlimit:10;" d="M249.493,191.512
					c-6.182-6.398-13.452-11.865-21.643-16.089"/>
			</g>
			<g>
				<path style="fill:none;stroke:#FFFFFF;stroke-width:1.5;stroke-miterlimit:10;" d="M152.191,174.563
					c-7.995,3.902-15.441,9.127-21.99,15.612"/>
			</g>
			<g>
				<path style="fill:none;stroke:#FFFFFF;stroke-width:1.5;stroke-miterlimit:10;" d="M106.003,261.865
					c1.241,8.809,3.909,17.506,8.053,25.738"/>
			</g>
			<g>
				<path style="fill:none;stroke:#FFFFFF;stroke-width:1.5;stroke-miterlimit:10;" d="M174.76,332.77
					c8.761,1.542,17.857,1.692,26.967,0.294"/>
			</g>
		</g>
		<g>
			<path style="fill:none;stroke:#A4A4A4;stroke-width:0.3;stroke-miterlimit:10;" d="M110.426,207.719
				c15.081-28.031,44.691-47.085,78.752-47.085c20.568,0,39.512,6.948,54.615,18.625c6.972,5.391,13.125,11.789,18.241,18.976"/>
			<path style="fill:#A9A9A9;" d="M110.426,208.926c-0.667,0-1.208-0.541-1.208-1.208c0-0.667,0.541-1.208,1.208-1.208
				s1.208,0.541,1.208,1.208C111.634,208.386,111.093,208.926,110.426,208.926z"/>
		</g>
		<polygon style="fill:#A9A9A9;" points="262.612,197.429 260.916,198.652 262.809,199.721 		"/>
		<g>
			<g>
				<path style="fill:none;stroke:#AEAEAE;stroke-width:0.3;stroke-miterlimit:10;" d="M278.545,250
					c0,24.134-9.566,46.033-25.114,62.113c-16.249,16.805-39.031,27.254-64.253,27.254"/>
				<path style="fill:#A9A9A9;" d="M278.545,250.868c-0.479,0-0.868-0.388-0.868-0.868s0.389-0.868,0.868-0.868
					s0.868,0.389,0.868,0.868S279.024,250.868,278.545,250.868z"/>
			</g>
			<polygon style="fill:#A9A9A9;" points="190.164,338.499 188.243,339.367 190.164,340.398 			"/>
		</g>
		<g>
			<g>
				<path style="fill:none;stroke:#AEAEAE;stroke-width:0.3;stroke-miterlimit:10;" d="M172.365,337.788
					c-41.318-7.866-72.554-44.179-72.554-87.788"/>
				<path style="fill:#A9A9A9;" d="M172.365,338.736c-0.524,0-0.948-0.425-0.948-0.948c0-0.524,0.424-0.948,0.948-0.948
					c0.524,0,0.948,0.424,0.948,0.948C173.313,338.311,172.888,338.736,172.365,338.736z"/>
			</g>
			<polygon style="fill:#A9A9A9;" points="100.561,250 99.811,248.659 99.141,250 			"/>
		</g>
		<g>
			<g>
				<path style="fill:#D7D7D7;" d="M189.178,115.6v-5.679c-25.49,0-49.408,6.843-70.014,18.798l2.83,4.903
					C141.777,122.168,164.72,115.6,189.178,115.6z M121.985,366.369c-20.369-11.812-37.378-28.812-49.171-49.19l-4.912,2.84
					c12.295,21.24,30.014,38.958,51.254,51.263L121.985,366.369z M259.201,371.282l-2.84-4.912
					c-19.782,11.472-42.726,18.031-67.184,18.031v5.679C214.668,390.079,238.595,383.236,259.201,371.282z M329.253,249.995h-5.679
					c0,24.458-6.559,47.402-18.031,67.184l4.912,2.84C322.409,299.403,329.253,275.485,329.253,249.995z M72.813,182.812
					l-4.922-2.84c-11.945,20.615-18.788,44.534-18.788,70.023h5.679C54.782,225.547,61.351,202.594,72.813,182.812z
					 M310.464,179.972c-12.305-21.23-30.023-38.949-51.263-51.254l-2.84,4.912c20.369,11.803,37.378,28.802,49.181,49.181
					L310.464,179.972z"/>
			</g>
		</g>
		<g>
			<g>
				<path style="fill:none;stroke:#A4A4A4;stroke-width:0.3;stroke-miterlimit:10;" d="M160.469,138.003l-1.199-4.565
					c-19.988,5.187-38.895,15.546-54.605,31.078s-26.285,34.319-31.7,54.246l4.557,1.244c5.216-19.146,15.372-37.199,30.47-52.125
					s33.266-24.875,52.469-29.872L160.469,138.003z M219.551,363.68c-19.78,5.141-40.648,5.022-60.369-0.345l-0.007-0.007
					c-19.146-5.216-37.199-15.372-52.125-30.47l-3.366,3.327c15.532,15.71,34.332,26.285,54.246,31.713
					c20.529,5.579,42.24,5.703,62.818,0.345L219.551,363.68z M307.426,220.102c-5.2-19.975-15.56-38.895-31.092-54.605l-3.365,3.327
					c14.926,15.098,24.875,33.266,29.872,52.469l0.007,0.007c5.141,19.794,5.022,40.648-0.352,60.375l4.558,1.244
					C312.646,262.405,312.77,240.693,307.426,220.102z"/>
			</g>
		</g>
		<g>
			<g>
				<path style="fill:#FFFFFF;" d="M293.579,289.013l-3.546-1.325c-6.858,18.353-18.222,33.729-32.378,45.355l2.414,2.923
					C274.717,323.939,286.479,308.014,293.579,289.013z M207.587,359.894l-0.627-3.73c-18.056,3.054-37.117,1.549-55.47-5.309
					l-1.325,3.546C169.165,361.501,188.901,363.066,207.587,359.894z M120.693,166.954l-2.405-2.92
					c-14.649,12.027-26.41,27.952-33.51,46.952l3.547,1.325C95.182,193.959,106.546,178.583,120.693,166.954z M226.866,149.146
					l1.325-3.547c-19.001-7.1-38.736-8.665-57.422-5.493l0.627,3.73C189.452,140.783,208.513,142.287,226.866,149.146z
					 M106.132,318.485c-11.985-14.573-19.972-32.108-23.109-50.7l-3.739,0.624c3.25,19.261,11.528,37.4,23.932,52.473
					L106.132,318.485z M299.072,231.591c-3.25-19.261-11.528-37.4-23.932-52.473l-2.916,2.396
					c11.984,14.573,19.972,32.108,23.118,50.703L299.072,231.591z"/>
			</g>
		</g>
		<g>
			<g>
				<path style="fill:#FFFFFF;" d="M275.027,200.441l-2.461,1.42c8.216,14.169,12.92,30.62,12.92,48.14h2.84
					C288.325,231.959,283.479,215.026,275.027,200.441z M105.79,298.149C97.574,283.98,92.87,267.529,92.87,250h-2.84
					c0,18.041,4.846,34.974,13.308,49.56L105.79,298.149z M141.038,166.612l-1.42-2.461c-15.031,8.708-27.581,21.259-36.289,36.289
					l2.461,1.42C114.252,187.256,126.433,175.074,141.038,166.612z M189.178,346.308c-17.529,0-33.971-4.704-48.149-12.92
					l-1.41,2.451c14.586,8.462,31.519,13.308,49.56,13.308V346.308z M275.017,299.56l-2.451-1.41
					c-8.462,14.605-20.644,26.786-35.248,35.239l1.42,2.461C253.768,327.141,266.319,314.59,275.017,299.56z M238.737,164.161
					c-14.586-8.462-31.519-13.308-49.559-13.308v2.84c17.529,0,33.97,4.704,48.149,12.92L238.737,164.161z"/>
			</g>
		</g>
		<g>
			
				<circle style="fill:none;stroke:#888787;stroke-width:6;stroke-miterlimit:10;stroke-dasharray:1.0022,6.0132;" cx="189.178" cy="250" r="148.493"/>
		</g>
		<g>
			
				<circle style="fill:none;stroke:#929292;stroke-width:2;stroke-linecap:round;stroke-linejoin:round;stroke-dasharray:0,11.9681;" cx="189.178" cy="250" r="171.424"/>
		</g>
	</g>
	<g>
		<g>
			<g>
				<polyline style="fill:none;stroke:#777777;stroke-width:0.5;stroke-miterlimit:10;" points="350.389,191.298 398.884,191.298 
					420.041,170.142 468.217,170.142 492.759,145.6 543.551,145.6 				"/>
				<polyline style="fill:none;stroke:#B1B1B1;stroke-width:0.5;stroke-miterlimit:10;" points="452.573,170.142 467.56,185.129 
					505.551,185.129 517.599,197.177 526.642,188.134 532.884,188.134 				"/>
				<circle style="fill:#CBCBCB;" cx="543.592" cy="145.655" r="2.75"/>
				<circle style="fill:#CBCBCB;" cx="350.389" cy="191.298" r="2.75"/>
				<g>
					<circle style="fill:none;stroke:#D7D7D7;stroke-width:0.5;stroke-miterlimit:10;" cx="534.821" cy="188.092" r="1.938"/>
					<circle style="fill:none;stroke:#D7D7D7;stroke-width:0.5;stroke-miterlimit:10;" cx="539.53" cy="188.092" r="1.938"/>
					<circle style="fill:none;stroke:#D7D7D7;stroke-width:0.5;stroke-miterlimit:10;" cx="544.238" cy="188.092" r="1.938"/>
				</g>
				
					<line style="fill:none;stroke:#B1B1B1;stroke-width:0.5;stroke-miterlimit:10;" x1="546.176" y1="188.092" x2="561.03" y2="188.092"/>
				<g>
					<polygon style="fill:#CBCBCB;" points="561.03,186.155 561.03,190.03 563.78,188.092 					"/>
					<polygon style="fill:#CBCBCB;" points="564.196,186.155 564.196,190.03 566.946,188.092 					"/>
					<polygon style="fill:#CBCBCB;" points="567.363,186.155 567.363,190.03 570.113,188.092 					"/>
				</g>
				<g>
					<line style="fill:none;stroke:#CBCBCB;stroke-miterlimit:10;" x1="367.051" y1="185.78" x2="367.051" y2="188.78"/>
					<line style="fill:none;stroke:#CBCBCB;stroke-miterlimit:10;" x1="369.467" y1="185.78" x2="369.467" y2="188.78"/>
					<line style="fill:none;stroke:#CBCBCB;stroke-miterlimit:10;" x1="371.884" y1="185.78" x2="371.884" y2="188.78"/>
					<line style="fill:none;stroke:#CBCBCB;stroke-miterlimit:10;" x1="374.301" y1="185.78" x2="374.301" y2="188.78"/>
					<line style="fill:none;stroke:#CBCBCB;stroke-miterlimit:10;" x1="376.717" y1="185.78" x2="376.717" y2="188.78"/>
				</g>
				<g>
					<line style="fill:none;stroke:#CBCBCB;stroke-miterlimit:10;" x1="494.759" y1="181.065" x2="494.759" y2="184.065"/>
					<line style="fill:none;stroke:#CBCBCB;stroke-miterlimit:10;" x1="497.176" y1="181.065" x2="497.176" y2="184.065"/>
					<line style="fill:none;stroke:#CBCBCB;stroke-miterlimit:10;" x1="499.592" y1="181.065" x2="499.592" y2="184.065"/>
					<line style="fill:none;stroke:#CBCBCB;stroke-miterlimit:10;" x1="502.009" y1="181.065" x2="502.009" y2="184.065"/>
					<line style="fill:none;stroke:#CBCBCB;stroke-miterlimit:10;" x1="504.426" y1="181.065" x2="504.426" y2="184.065"/>
				</g>
				<path style="fill:#CBCBCB;" d="M453.469,170.142c0,0.495-0.401,0.896-0.896,0.896c-0.495,0-0.896-0.401-0.896-0.896
					c0-0.495,0.401-0.896,0.896-0.896C453.068,169.246,453.469,169.647,453.469,170.142z"/>
			</g>
			<g>
				<polyline style="fill:none;stroke:#B1B1B1;stroke-width:0.5;stroke-miterlimit:10;" points="364.543,121.743 380.975,138.175 
					405.019,138.175 				"/>
				<g>
					<polygon style="fill:#CBCBCB;" points="404.668,136.238 404.668,140.113 407.418,138.175 					"/>
					<polygon style="fill:#CBCBCB;" points="407.835,136.238 407.835,140.113 410.585,138.175 					"/>
					<polygon style="fill:#CBCBCB;" points="411.001,136.238 411.001,140.113 413.751,138.175 					"/>
				</g>
				<g>
					<line style="fill:none;stroke:#CBCBCB;stroke-miterlimit:10;" x1="437.086" y1="102.241" x2="437.086" y2="105.241"/>
					<line style="fill:none;stroke:#CBCBCB;stroke-miterlimit:10;" x1="439.503" y1="102.241" x2="439.503" y2="105.241"/>
					<line style="fill:none;stroke:#CBCBCB;stroke-miterlimit:10;" x1="441.919" y1="102.241" x2="441.919" y2="105.241"/>
					<line style="fill:none;stroke:#CBCBCB;stroke-miterlimit:10;" x1="444.336" y1="102.241" x2="444.336" y2="105.241"/>
					<line style="fill:none;stroke:#CBCBCB;stroke-miterlimit:10;" x1="446.753" y1="102.241" x2="446.753" y2="105.241"/>
				</g>
				<polyline style="fill:none;stroke:#929292;stroke-width:0.5;stroke-miterlimit:10;" points="390.378,121.743 420.269,121.743 
					435.672,106.34 473.397,106.34 				"/>
				<path style="fill:none;stroke:#777777;stroke-width:0.5;stroke-miterlimit:10;" d="M324.769,144.84
					c0.75-0.709,23.097-23.097,23.097-23.097h30.84"/>
				<path style="fill:#CBCBCB;" d="M422.044,121.743c0,0.952-0.771,1.723-1.723,1.723c-0.952,0-1.723-0.771-1.723-1.723
					c0-0.952,0.772-1.723,1.723-1.723C421.272,120.02,422.044,120.791,422.044,121.743z"/>
				<circle style="fill:#CBCBCB;" cx="324.769" cy="144.84" r="1.723"/>
				<g>
					
						<rect x="378.769" y="120.808" style="fill:none;stroke:#CBCBCB;stroke-width:0.5;stroke-miterlimit:10;" width="1.87" height="1.87"/>
					
						<rect x="381.982" y="120.808" style="fill:none;stroke:#CBCBCB;stroke-width:0.5;stroke-miterlimit:10;" width="1.87" height="1.87"/>
					
						<rect x="385.196" y="120.808" style="fill:none;stroke:#CBCBCB;stroke-width:0.5;stroke-miterlimit:10;" width="1.87" height="1.87"/>
					
						<rect x="388.409" y="120.808" style="fill:none;stroke:#CBCBCB;stroke-width:0.5;stroke-miterlimit:10;" width="1.87" height="1.87"/>
				</g>
				<g>
					<polygon style="fill:#CBCBCB;" points="471.584,104.403 471.584,108.278 474.334,106.34 					"/>
					<polygon style="fill:#CBCBCB;" points="474.751,104.403 474.751,108.278 477.501,106.34 					"/>
					<polygon style="fill:#CBCBCB;" points="477.918,104.403 477.918,108.278 480.668,106.34 					"/>
				</g>
			</g>
			<g>
				<g>
					<path style="fill:none;stroke:#BEBEBE;stroke-width:0.75;stroke-miterlimit:10;" d="M489.731,57.083
						c0,3.494-2.832,6.327-6.327,6.327c-3.494,0-6.327-2.833-6.327-6.327c0-3.494,2.832-6.327,6.327-6.327
						C486.898,50.757,489.731,53.589,489.731,57.083z"/>
					
						<line style="fill:none;stroke:#BEBEBE;stroke-width:0.75;stroke-miterlimit:10;" x1="483.404" y1="46.361" x2="483.404" y2="67.759"/>
				</g>
				<polyline style="fill:none;stroke:#777777;stroke-width:0.5;stroke-miterlimit:10;" points="281.273,105.206 307.477,79.002 
					368.439,79.002 				"/>
				<polyline style="fill:none;stroke:#B1B1B1;stroke-width:0.5;stroke-miterlimit:10;" points="327.254,79.002 349.195,57.06 
					477.004,57.06 				"/>
				<g>
					<polygon style="fill:#CBCBCB;" points="367.024,77.064 367.024,80.939 369.774,79.002 					"/>
					<polygon style="fill:#CBCBCB;" points="370.191,77.064 370.191,80.939 372.941,79.002 					"/>
					<polygon style="fill:#CBCBCB;" points="373.357,77.064 373.357,80.939 376.107,79.002 					"/>
				</g>
				<path style="fill:#CBCBCB;" d="M350.925,57.06c0,0.952-0.771,1.723-1.723,1.723c-0.952,0-1.723-0.771-1.723-1.723
					c0-0.952,0.772-1.723,1.723-1.723C350.153,55.337,350.925,56.108,350.925,57.06z"/>
				<path style="fill:#CBCBCB;" d="M282.996,105.206c0,0.952-0.771,1.723-1.723,1.723c-0.952,0-1.723-0.771-1.723-1.723
					c0-0.952,0.771-1.723,1.723-1.723C282.224,103.483,282.996,104.254,282.996,105.206z"/>
			</g>
			<g>
				<polyline style="fill:none;stroke:#777777;stroke-width:0.5;stroke-miterlimit:10;" points="350.389,308.702 398.884,308.702 
					420.041,329.858 468.217,329.858 492.759,354.4 543.551,354.4 				"/>
				<polyline style="fill:none;stroke:#B1B1B1;stroke-width:0.5;stroke-miterlimit:10;" points="452.573,329.858 467.56,314.871 
					505.551,314.871 517.599,302.823 526.642,311.866 532.884,311.866 				"/>
				<circle style="fill:#CBCBCB;" cx="543.592" cy="354.345" r="2.75"/>
				<circle style="fill:#CBCBCB;" cx="350.389" cy="308.702" r="2.75"/>
				<g>
					<circle style="fill:none;stroke:#D7D7D7;stroke-width:0.5;stroke-miterlimit:10;" cx="534.821" cy="311.908" r="1.938"/>
					<circle style="fill:none;stroke:#D7D7D7;stroke-width:0.5;stroke-miterlimit:10;" cx="539.53" cy="311.908" r="1.938"/>
					<circle style="fill:none;stroke:#D7D7D7;stroke-width:0.5;stroke-miterlimit:10;" cx="544.238" cy="311.908" r="1.938"/>
				</g>
				
					<line style="fill:none;stroke:#B1B1B1;stroke-width:0.5;stroke-miterlimit:10;" x1="546.176" y1="311.908" x2="561.03" y2="311.908"/>
				<g>
					<polygon style="fill:#CBCBCB;" points="561.03,313.845 561.03,309.97 563.78,311.908 					"/>
					<polygon style="fill:#CBCBCB;" points="564.196,313.845 564.196,309.97 566.946,311.908 					"/>
					<polygon style="fill:#CBCBCB;" points="567.363,313.845 567.363,309.97 570.113,311.908 					"/>
				</g>
				<g>
					<line style="fill:none;stroke:#CBCBCB;stroke-miterlimit:10;" x1="367.051" y1="314.22" x2="367.051" y2="311.22"/>
					<line style="fill:none;stroke:#CBCBCB;stroke-miterlimit:10;" x1="369.467" y1="314.22" x2="369.467" y2="311.22"/>
					<line style="fill:none;stroke:#CBCBCB;stroke-miterlimit:10;" x1="371.884" y1="314.22" x2="371.884" y2="311.22"/>
					<line style="fill:none;stroke:#CBCBCB;stroke-miterlimit:10;" x1="374.301" y1="314.22" x2="374.301" y2="311.22"/>
					<line style="fill:none;stroke:#CBCBCB;stroke-miterlimit:10;" x1="376.717" y1="314.22" x2="376.717" y2="311.22"/>
				</g>
				<g>
					<line style="fill:none;stroke:#CBCBCB;stroke-miterlimit:10;" x1="494.759" y1="318.935" x2="494.759" y2="315.935"/>
					<line style="fill:none;stroke:#CBCBCB;stroke-miterlimit:10;" x1="497.176" y1="318.935" x2="497.176" y2="315.935"/>
					<line style="fill:none;stroke:#CBCBCB;stroke-miterlimit:10;" x1="499.592" y1="318.935" x2="499.592" y2="315.935"/>
					<line style="fill:none;stroke:#CBCBCB;stroke-miterlimit:10;" x1="502.009" y1="318.935" x2="502.009" y2="315.935"/>
					<line style="fill:none;stroke:#CBCBCB;stroke-miterlimit:10;" x1="504.426" y1="318.935" x2="504.426" y2="315.935"/>
				</g>
				<path style="fill:#CBCBCB;" d="M453.469,329.858c0-0.495-0.401-0.896-0.896-0.896c-0.495,0-0.896,0.401-0.896,0.896
					c0,0.495,0.401,0.896,0.896,0.896C453.068,330.754,453.469,330.353,453.469,329.858z"/>
			</g>
			<g>
				<polyline style="fill:none;stroke:#B1B1B1;stroke-width:0.5;stroke-miterlimit:10;" points="364.543,378.257 380.975,361.825 
					405.019,361.825 				"/>
				<g>
					<polygon style="fill:#CBCBCB;" points="404.668,363.762 404.668,359.887 407.418,361.825 					"/>
					<polygon style="fill:#CBCBCB;" points="407.835,363.762 407.835,359.887 410.585,361.825 					"/>
					<polygon style="fill:#CBCBCB;" points="411.001,363.762 411.001,359.887 413.751,361.825 					"/>
				</g>
				<g>
					<line style="fill:none;stroke:#CBCBCB;stroke-miterlimit:10;" x1="437.086" y1="397.759" x2="437.086" y2="394.759"/>
					<line style="fill:none;stroke:#CBCBCB;stroke-miterlimit:10;" x1="439.503" y1="397.759" x2="439.503" y2="394.759"/>
					<line style="fill:none;stroke:#CBCBCB;stroke-miterlimit:10;" x1="441.919" y1="397.759" x2="441.919" y2="394.759"/>
					<line style="fill:none;stroke:#CBCBCB;stroke-miterlimit:10;" x1="444.336" y1="397.759" x2="444.336" y2="394.759"/>
					<line style="fill:none;stroke:#CBCBCB;stroke-miterlimit:10;" x1="446.753" y1="397.759" x2="446.753" y2="394.759"/>
				</g>
				<polyline style="fill:none;stroke:#777777;stroke-width:0.5;stroke-miterlimit:10;" points="390.378,378.257 420.269,378.257 
					435.672,393.66 473.397,393.66 				"/>
				<path style="fill:none;stroke:#777777;stroke-width:0.5;stroke-miterlimit:10;" d="M324.769,355.16
					c0.75,0.709,23.097,23.097,23.097,23.097h30.84"/>
				<path style="fill:#CBCBCB;" d="M422.044,378.257c0-0.952-0.771-1.723-1.723-1.723c-0.952,0-1.723,0.772-1.723,1.723
					c0,0.952,0.772,1.723,1.723,1.723C421.272,379.98,422.044,379.209,422.044,378.257z"/>
				<circle style="fill:#CBCBCB;" cx="324.769" cy="355.16" r="1.723"/>
				<g>
					
						<rect x="378.769" y="377.322" style="fill:none;stroke:#CBCBCB;stroke-width:0.5;stroke-miterlimit:10;" width="1.87" height="1.87"/>
					
						<rect x="381.982" y="377.322" style="fill:none;stroke:#CBCBCB;stroke-width:0.5;stroke-miterlimit:10;" width="1.87" height="1.87"/>
					
						<rect x="385.196" y="377.322" style="fill:none;stroke:#CBCBCB;stroke-width:0.5;stroke-miterlimit:10;" width="1.87" height="1.87"/>
					
						<rect x="388.409" y="377.322" style="fill:none;stroke:#CBCBCB;stroke-width:0.5;stroke-miterlimit:10;" width="1.87" height="1.87"/>
				</g>
				<g>
					<polygon style="fill:#CBCBCB;" points="471.584,395.597 471.584,391.722 474.334,393.66 					"/>
					<polygon style="fill:#CBCBCB;" points="474.751,395.597 474.751,391.722 477.501,393.66 					"/>
					<polygon style="fill:#CBCBCB;" points="477.918,395.597 477.918,391.722 480.668,393.66 					"/>
				</g>
			</g>
			<g>
				<g>
					<path style="fill:none;stroke:#BEBEBE;stroke-width:0.75;stroke-miterlimit:10;" d="M489.731,442.917
						c0-3.494-2.832-6.327-6.327-6.327c-3.494,0-6.327,2.833-6.327,6.327c0,3.494,2.832,6.327,6.327,6.327
						C486.898,449.243,489.731,446.411,489.731,442.917z"/>
					
						<line style="fill:none;stroke:#BEBEBE;stroke-width:0.75;stroke-miterlimit:10;" x1="483.404" y1="453.639" x2="483.404" y2="432.241"/>
				</g>
				<polyline style="fill:none;stroke:#777777;stroke-width:0.5;stroke-miterlimit:10;" points="281.273,394.794 307.477,420.998 
					368.439,420.998 				"/>
				<polyline style="fill:none;stroke:#B1B1B1;stroke-width:0.5;stroke-miterlimit:10;" points="327.254,420.998 349.195,442.94 
					477.004,442.94 				"/>
				<g>
					<polygon style="fill:#CBCBCB;" points="367.024,422.936 367.024,419.061 369.774,420.998 					"/>
					<polygon style="fill:#CBCBCB;" points="370.191,422.936 370.191,419.061 372.941,420.998 					"/>
					<polygon style="fill:#CBCBCB;" points="373.357,422.936 373.357,419.061 376.107,420.998 					"/>
				</g>
				<path style="fill:#CBCBCB;" d="M350.925,442.94c0-0.952-0.771-1.723-1.723-1.723c-0.952,0-1.723,0.772-1.723,1.723
					c0,0.952,0.772,1.723,1.723,1.723C350.153,444.663,350.925,443.892,350.925,442.94z"/>
				<path style="fill:#CBCBCB;" d="M282.996,394.794c0-0.952-0.771-1.723-1.723-1.723c-0.952,0-1.723,0.771-1.723,1.723
					c0,0.952,0.771,1.723,1.723,1.723C282.224,396.517,282.996,395.746,282.996,394.794z"/>
			</g>
		</g>
		<g>
			<g>
				<polyline style="fill:none;stroke:#B1B1B1;stroke-width:0.5;stroke-miterlimit:10;" points="379.625,249.991 401.165,271.531 
					455.768,271.531 473.085,288.848 486.082,275.851 495.053,275.851 				"/>
				<g>
					<circle style="fill:none;stroke:#D7D7D7;stroke-width:0.5;stroke-miterlimit:10;" cx="497.838" cy="275.791" r="2.785"/>
					<circle style="fill:none;stroke:#D7D7D7;stroke-width:0.5;stroke-miterlimit:10;" cx="504.605" cy="275.791" r="2.785"/>
					<circle style="fill:none;stroke:#D7D7D7;stroke-width:0.5;stroke-miterlimit:10;" cx="511.372" cy="275.791" r="2.785"/>
				</g>
				
					<line style="fill:none;stroke:#AEAEAE;stroke-width:0.5;stroke-miterlimit:10;" x1="514.157" y1="275.791" x2="535.506" y2="275.791"/>
				<g>
					<polygon style="fill:#CBCBCB;" points="535.506,273.006 535.506,278.576 539.458,275.791 					"/>
					<polygon style="fill:#CBCBCB;" points="540.057,273.006 540.057,278.576 544.01,275.791 					"/>
					<polygon style="fill:#CBCBCB;" points="544.609,273.006 544.609,278.576 548.561,275.791 					"/>
				</g>
				<g>
					<line style="fill:none;stroke:#CBCBCB;stroke-miterlimit:10;" x1="440.257" y1="265.69" x2="440.257" y2="270.002"/>
					<line style="fill:none;stroke:#CBCBCB;stroke-miterlimit:10;" x1="443.731" y1="265.69" x2="443.731" y2="270.002"/>
					<line style="fill:none;stroke:#CBCBCB;stroke-miterlimit:10;" x1="447.204" y1="265.69" x2="447.204" y2="270.002"/>
					<line style="fill:none;stroke:#CBCBCB;stroke-miterlimit:10;" x1="450.678" y1="265.69" x2="450.678" y2="270.002"/>
					<line style="fill:none;stroke:#CBCBCB;stroke-miterlimit:10;" x1="454.151" y1="265.69" x2="454.151" y2="270.002"/>
				</g>
			</g>
			<g>
				<polyline style="fill:none;stroke:#B1B1B1;stroke-width:0.5;stroke-miterlimit:10;" points="442.665,250 459.857,232.808 
					503.438,232.808 517.259,218.987 527.633,229.36 534.793,229.36 				"/>
				<g>
					<circle style="fill:none;stroke:#D7D7D7;stroke-width:0.5;stroke-miterlimit:10;" cx="537.016" cy="229.408" r="2.223"/>
					<circle style="fill:none;stroke:#D7D7D7;stroke-width:0.5;stroke-miterlimit:10;" cx="542.417" cy="229.408" r="2.223"/>
					<circle style="fill:none;stroke:#D7D7D7;stroke-width:0.5;stroke-miterlimit:10;" cx="547.818" cy="229.408" r="2.223"/>
				</g>
				
					<line style="fill:none;stroke:#AEAEAE;stroke-width:0.5;stroke-miterlimit:10;" x1="550.04" y1="229.408" x2="567.08" y2="229.408"/>
				<g>
					<polygon style="fill:#CBCBCB;" points="567.08,231.631 567.08,227.185 570.235,229.408 					"/>
					<polygon style="fill:#CBCBCB;" points="570.713,231.631 570.713,227.185 573.867,229.408 					"/>
					<polygon style="fill:#CBCBCB;" points="574.345,231.631 574.345,227.185 577.5,229.408 					"/>
				</g>
				<g>
					<line style="fill:none;stroke:#CBCBCB;stroke-miterlimit:10;" x1="491.058" y1="237.47" x2="491.058" y2="234.028"/>
					<line style="fill:none;stroke:#CBCBCB;stroke-miterlimit:10;" x1="493.831" y1="237.47" x2="493.831" y2="234.028"/>
					<line style="fill:none;stroke:#CBCBCB;stroke-miterlimit:10;" x1="496.603" y1="237.47" x2="496.603" y2="234.028"/>
					<line style="fill:none;stroke:#CBCBCB;stroke-miterlimit:10;" x1="499.375" y1="237.47" x2="499.375" y2="234.028"/>
					<line style="fill:none;stroke:#CBCBCB;stroke-miterlimit:10;" x1="502.147" y1="237.47" x2="502.147" y2="234.028"/>
				</g>
			</g>
			
				<line style="fill:none;stroke:#777777;stroke-width:0.5;stroke-miterlimit:10;" x1="360.625" y1="249.991" x2="599.458" y2="249.991"/>
			<g>
				<g>
					<path style="fill:#EFEFEF;" d="M714.115,250.189c-0.084,24.747-20.214,44.739-44.961,44.655
						c-24.746-0.084-44.739-20.214-44.655-44.96c0.084-24.747,20.214-44.74,44.96-44.655
						C694.206,205.312,714.199,225.442,714.115,250.189z"/>
					<path style="fill:#DDDDDD;" d="M708.287,250.169c-0.073,21.528-17.585,38.92-39.113,38.847
						c-21.528-0.073-38.92-17.585-38.847-39.113s17.585-38.921,39.113-38.848C690.968,211.129,708.36,228.64,708.287,250.169z"/>
					<circle style="fill:none;stroke:#AEAEAE;stroke-width:0.5;stroke-miterlimit:10;" cx="669.307" cy="250.036" r="50.007"/>
					
						<circle style="fill:none;stroke:#BFBFBF;stroke-width:5;stroke-miterlimit:10;stroke-dasharray:1,6;" cx="669.307" cy="250.036" r="60.006"/>
					<g>
						
							<circle style="fill:none;stroke:#AEAEAE;stroke-width:2;stroke-linecap:round;stroke-linejoin:round;stroke-dasharray:0,11.9219;" cx="669.307" cy="250.036" r="70.202"/>
					</g>
					<path style="fill:none;stroke:#AEAEAE;stroke-width:0.2893;stroke-miterlimit:10;" d="M698.238,250.134
						c-0.055,15.978-13.052,28.887-29.03,28.832c-15.978-0.055-28.887-13.051-28.832-29.03s13.052-28.887,29.03-28.833
						C685.384,221.159,698.293,234.156,698.238,250.134z"/>
					<path style="fill:#C9C9C9;" d="M691.667,250.112c-0.042,12.349-10.087,22.326-22.437,22.284
						c-12.349-0.042-22.326-10.087-22.284-22.436c0.042-12.349,10.087-22.326,22.436-22.284
						C681.732,227.717,691.709,237.762,691.667,250.112z"/>
					<path style="fill:none;stroke:#595959;stroke-width:2;stroke-miterlimit:10;stroke-dasharray:0.5,2;" d="M686.079,250.093
						c-0.032,9.263-7.566,16.746-16.829,16.715c-9.263-0.032-16.746-7.566-16.715-16.829s7.566-16.747,16.829-16.715
						C678.627,233.295,686.11,240.83,686.079,250.093z"/>
				</g>
				<circle style="fill:#FFFFFF;" cx="669.323" cy="250.109" r="11.006"/>
				<g>
					<g>
						<path style="fill:#FFFFFF;" d="M691.561,237.188l-0.638,0.368c2.13,3.673,3.349,7.938,3.349,12.479h0.736
							C695.009,245.359,693.753,240.969,691.561,237.188z M647.69,262.517c-2.13-3.673-3.349-7.938-3.349-12.482h-0.736
							c0,4.677,1.256,9.066,3.45,12.847L647.69,262.517z M656.827,228.419l-0.368-0.638c-3.896,2.257-7.15,5.511-9.407,9.407
							l0.638,0.368C649.883,233.77,653.041,230.612,656.827,228.419z M669.307,275.002c-4.544,0-8.806-1.219-12.482-3.349
							l-0.366,0.635c3.781,2.194,8.171,3.45,12.847,3.45V275.002z M691.559,262.883l-0.635-0.366
							c-2.194,3.786-5.351,6.944-9.137,9.135l0.368,0.638C686.05,270.033,689.304,266.779,691.559,262.883z M682.154,227.783
							c-3.781-2.194-8.171-3.45-12.847-3.45v0.736c4.544,0,8.806,1.219,12.482,3.349L682.154,227.783z"/>
					</g>
				</g>
				<g>
					<g>
						<path style="fill:#FFFFFF;" d="M699.891,232.38l-0.877,0.506c2.927,5.048,4.603,10.909,4.603,17.15h1.012
							C704.629,243.608,702.902,237.576,699.891,232.38z M639.599,267.189c-2.927-5.048-4.603-10.909-4.603-17.154h-1.012
							c0,6.427,1.726,12.46,4.741,17.656L639.599,267.189z M652.156,220.328l-0.506-0.877c-5.355,3.102-9.826,7.574-12.928,12.928
							l0.877,0.506C642.614,227.682,646.953,223.343,652.156,220.328z M669.307,284.346c-6.245,0-12.102-1.676-17.154-4.603
							l-0.502,0.873c5.196,3.015,11.229,4.741,17.656,4.741V284.346z M699.888,267.692l-0.873-0.502
							c-3.015,5.203-7.354,9.543-12.557,12.554l0.506,0.877C692.317,277.518,696.789,273.046,699.888,267.692z M686.962,219.455
							c-5.196-3.015-11.229-4.741-17.656-4.741v1.012c6.245,0,12.102,1.676,17.154,4.603L686.962,219.455z"/>
					</g>
				</g>
			</g>
			<circle style="fill:#CBCBCB;" cx="360.625" cy="250" r="2.271"/>
			<circle style="fill:#CBCBCB;" cx="599.104" cy="250" r="2.271"/>
		</g>
	</g>
</g>
</svg>
